<svg width="556" height="100" viewBox="0 0 556 100" fill="none" xmlns="http://www.w3.org/2000/svg">
<path d="M26.2904 34.0323C44.5498 29.848 62.8093 41.0991 66.9802 59.0451C67.3922 60.9461 67.6576 62.9206 67.7766 64.9032L67.8144 65.647L57.4334 67.9716L52.0575 69.1804L18.7827 76.7121C22.9536 82.6631 30.554 85.7316 38.0617 84.0579C42.4658 83.0661 46.3469 80.5004 48.9445 76.8696L49.1842 76.5262L64.9411 80.2455C60.6775 89.451 52.3356 96.7038 41.5838 99.1214C23.3244 103.306 5.15759 92.1475 0.893962 74.1086C-3.36967 56.0696 8.03091 38.2166 26.2904 34.0323ZM514.476 34.1253C532.735 29.941 550.995 41.1921 555.166 59.1381C555.578 61.0391 555.843 63.0136 555.962 64.9962L556 65.74L545.619 68.0646L540.243 69.2734L506.968 76.8051C511.139 82.7561 518.74 85.8246 526.247 84.1509C530.651 83.159 534.532 80.5934 537.13 76.9626L537.37 76.6191L553.127 80.2455C548.863 89.451 540.521 96.7038 529.769 99.1214C511.51 103.306 493.251 92.0545 489.08 74.1086C484.816 56.1626 496.216 38.3096 514.476 34.1253ZM153.829 34.1253C172.088 29.941 190.255 41.1921 194.518 59.1381C194.93 61.0391 195.196 63.0136 195.315 64.9962L195.353 65.74L184.972 68.0646L179.596 69.2734L146.321 76.8051C150.677 82.9421 158.278 85.8246 165.6 84.1509C170.142 83.128 174.127 80.4315 176.722 76.6191L187.862 79.1418C190.457 79.7375 192.479 80.2122 192.479 80.2455C188.216 89.451 179.874 96.7038 169.122 99.1214C150.862 103.306 132.603 92.0545 128.432 74.1086C124.168 56.1626 135.569 38.3096 153.829 34.1253ZM326.784 0V39.0534C331.974 34.8691 338.091 33.1024 344.858 33.1024C363.951 33.1024 379.245 47.887 379.245 66.3909C379.245 84.8018 363.951 99.8652 344.858 99.8652C338.184 99.8652 331.974 98.0985 326.784 93.9142V98.0985H310.007V3.81236L326.784 0ZM401.212 34.2183V39.8903C406.294 36.2484 411.199 34.9244 419.493 34.4344L420.027 34.4042V50.7695C403.786 51.3218 401.261 56.7954 401.212 66.4684L401.212 98.0985H384.435V34.2183H401.212ZM291.655 7.99666V34.2183H304.724V50.1186H291.655V98.0985H274.23V50.1186H263.941V34.2183H274.23V11.902L291.655 7.99666ZM233.818 33.0095C247.999 33.0095 260.327 41.1921 260.327 61.1837V98.0056H243.457V63.9733C243.457 51.8667 237.062 49.0276 230.532 48.9134L230.11 48.9098L229.689 48.9132C223.159 49.0198 216.763 51.6788 216.763 63.6943V98.0985H199.987V34.2183H216.763V38.9605L218.008 38.063C221.495 35.5926 225.891 33.0095 233.818 33.0095ZM80.976 34.2183L97.4744 77.549L114.158 34.2183H132.418L106.28 98.0985H88.8545L62.7166 34.2183H80.976ZM442.643 34.2183V98.0985H425.867V34.2183H442.643ZM476.474 11.902V34.2183H489.543V50.3975H476.474V98.0056H459.049V50.4905H448.76V34.2183H459.049V11.902H476.474ZM344.765 48.4449C334.847 48.4449 326.784 56.3485 326.413 65.554V67.1347C326.876 76.4332 334.94 84.2439 344.765 84.2439C354.775 84.2439 363.024 76.0612 363.024 66.2979C363.024 56.7205 354.775 48.4449 344.765 48.4449ZM504.002 63.6943L537.184 56.1626C532.828 50.1186 525.228 47.2361 517.998 48.9098C510.611 50.5565 505.378 56.4337 504.064 63.3532L504.002 63.6943ZM143.355 63.6943L176.537 56.1626C172.366 50.3046 164.858 47.2361 157.351 48.9098C149.962 50.5569 144.638 56.4367 143.411 63.3586L143.355 63.6943ZM15.8167 63.6943L48.9988 56.1626C44.8279 50.3046 37.3202 47.2361 29.8125 48.9098C22.424 50.5569 17.1001 56.3467 15.8728 63.3543L15.8167 63.6943ZM434.301 1.48775C440.326 1.48775 444.775 5.951 444.775 11.809C444.775 17.76 440.233 22.3163 434.301 22.3163C428.277 22.3163 423.642 17.76 423.642 11.809C423.642 5.85802 428.277 1.48775 434.301 1.48775Z" fill="#F05537"/>
</svg>
