<svg id="Layer_1" data-name="Layer 1" xmlns="http://www.w3.org/2000/svg" xmlns:xlink="http://www.w3.org/1999/xlink" viewBox="0 0 179.24 45.05"><defs><style>.cls-1{fill:none;}.cls-2{clip-path:url(#clip-path);}.cls-3{clip-path:url(#clip-path-2);}.cls-4{fill:#4b4b4b;}.cls-5{clip-path:url(#clip-path-4);}.cls-6{fill:#fff;}.cls-7{clip-path:url(#clip-path-6);}.cls-8{clip-path:url(#clip-path-8);}.cls-9{fill:#f58020;}.cls-10{clip-path:url(#clip-path-10);}.cls-11{clip-path:url(#clip-path-12);}.cls-12{fill:#336CDE;}.cls-13{clip-path:url(#clip-path-14);}.cls-14{clip-path:url(#clip-path-16);}.cls-15{clip-path:url(#clip-path-18);}</style><clipPath id="clip-path" transform="translate(-72.43 -39)"><rect class="cls-1" x="80.47" y="44.88" width="31.2" height="31.2" transform="translate(-14.62 85.65) rotate(-45)"/></clipPath><clipPath id="clip-path-2" transform="translate(-72.43 -39)"><circle class="cls-1" cx="87.23" cy="57.96" r="5.46"/></clipPath><clipPath id="clip-path-4" transform="translate(-72.43 -39)"><circle class="cls-1" cx="87.23" cy="57.96" r="4.62"/></clipPath><clipPath id="clip-path-6" transform="translate(-72.43 -39)"><circle class="cls-1" cx="98.52" cy="69.25" r="5.46"/></clipPath><clipPath id="clip-path-8" transform="translate(-72.43 -39)"><circle class="cls-1" cx="98.52" cy="69.25" r="4.62"/></clipPath><clipPath id="clip-path-10" transform="translate(-72.43 -39)"><circle class="cls-1" cx="102.69" cy="53.8" r="5.46"/></clipPath><clipPath id="clip-path-12" transform="translate(-72.43 -39)"><circle class="cls-1" cx="102.69" cy="53.8" r="4.62"/></clipPath><clipPath id="clip-path-14" transform="translate(-72.43 -39)"><rect class="cls-1" x="92.46" y="60.66" width="0.84" height="5.88" transform="translate(-17.77 84.3) rotate(-45)"/></clipPath><clipPath id="clip-path-16" transform="translate(-72.43 -39)"><rect class="cls-1" x="92" y="55.47" width="5.88" height="0.84" transform="translate(-11.23 26.48) rotate(-15)"/></clipPath><clipPath id="clip-path-18" transform="translate(-72.43 -39)"><rect class="cls-1" x="97.65" y="61.12" width="5.88" height="0.84" transform="translate(15.12 142.77) rotate(-75)"/></clipPath></defs><title>logo_name</title><g class="cls-2"><g class="cls-3"><rect class="cls-4" x="76.77" y="47.49" width="20.93" height="20.93" transform="translate(-87.86 39.66) rotate(-45)"/></g></g><g class="cls-2"><g class="cls-5"><rect class="cls-6" x="77.61" y="48.33" width="19.25" height="19.25" transform="translate(-87.86 39.66) rotate(-45)"/></g></g><g class="cls-2"><g class="cls-7"><rect class="cls-4" x="88.06" y="58.79" width="20.93" height="20.93" transform="translate(-92.54 50.95) rotate(-45)"/></g></g><g class="cls-2"><g class="cls-8"><rect class="cls-9" x="88.9" y="59.63" width="19.25" height="19.25" transform="translate(-92.54 50.95) rotate(-45)"/></g></g><g class="cls-2"><g class="cls-10"><rect class="cls-4" x="92.22" y="43.33" width="20.93" height="20.93" transform="translate(-80.39 49.37) rotate(-45)"/></g></g><g class="cls-2"><g class="cls-11"><rect class="cls-12" x="93.06" y="44.17" width="19.25" height="19.25" transform="translate(-80.39 49.37) rotate(-45)"/></g></g><g class="cls-2"><g class="cls-13"><rect class="cls-4" x="87.46" y="55.66" width="10.84" height="15.88" transform="translate(-90.2 45.31) rotate(-45)"/></g></g><g class="cls-2"><g class="cls-14"><rect class="cls-4" x="87" y="50.47" width="15.88" height="10.84" transform="translate(-83.66 -12.52) rotate(-15)"/></g></g><g class="cls-2"><g class="cls-15"><rect class="cls-4" x="92.65" y="56.12" width="15.88" height="10.84" transform="translate(-57.31 103.78) rotate(-75)"/></g></g><path class="cls-4" d="M122.63,64.88H116.8a5.36,5.36,0,0,1-2.06-.39,4.91,4.91,0,0,1-1.63-1.09A5.07,5.07,0,0,1,112,61.74a5.82,5.82,0,0,1,0-4.19,4.93,4.93,0,0,1,2.71-2.74,5.36,5.36,0,0,1,2.06-.39,5.21,5.21,0,0,1,2,.39,5,5,0,0,1,1.64,1.08,5.07,5.07,0,0,1,1.08,1.66,5.48,5.48,0,0,1,.39,2.09,5.16,5.16,0,0,1-.6,2.47,4.62,4.62,0,0,1-1.79,1.8v0h3.08Zm-9.89-5.23a4.65,4.65,0,0,0,.28,1.63,4,4,0,0,0,.8,1.37,3.66,3.66,0,0,0,1.27,1,4.3,4.3,0,0,0,3.4,0,3.79,3.79,0,0,0,1.28-1,4.18,4.18,0,0,0,.81-1.37,4.44,4.44,0,0,0,.29-1.63,4.5,4.5,0,0,0-.29-1.64,4.39,4.39,0,0,0-.81-1.37,3.93,3.93,0,0,0-1.28-1,4.3,4.3,0,0,0-3.4,0,3.78,3.78,0,0,0-1.27,1A4.19,4.19,0,0,0,113,58,4.71,4.71,0,0,0,112.74,59.65Z" transform="translate(-72.43 -39)"/><path class="cls-4" d="M132.52,65.13a4,4,0,0,1-1.88-.39,3.49,3.49,0,0,1-1.17-1,3.75,3.75,0,0,1-.6-1.32,6,6,0,0,1-.16-1.35V54.68h1V61a4.81,4.81,0,0,0,.15,1.2,3.06,3.06,0,0,0,.46,1,2.56,2.56,0,0,0,.86.73,3.2,3.2,0,0,0,2.62,0,2.46,2.46,0,0,0,.86-.73,3.28,3.28,0,0,0,.47-1,5.32,5.32,0,0,0,.14-1.2V54.68h1v6.39a6,6,0,0,1-.17,1.35,3.75,3.75,0,0,1-.6,1.32,3.4,3.4,0,0,1-1.17,1A4,4,0,0,1,132.52,65.13Z" transform="translate(-72.43 -39)"/><path class="cls-4" d="M143.18,64.88H142l4.41-10.2h1l4.38,10.2h-1.15l-1.12-2.68h-5.27Zm1.5-3.63h4.49l-2.25-5.42Z" transform="translate(-72.43 -39)"/><path class="cls-4" d="M158.8,64.88h-1V54.68h3a6.75,6.75,0,0,1,1.39.14,3.29,3.29,0,0,1,1.11.47,2.37,2.37,0,0,1,.73.84,2.88,2.88,0,0,1,.25,1.27,2.38,2.38,0,0,1-.2,1,2.36,2.36,0,0,1-.54.8,2.54,2.54,0,0,1-.82.54,3.53,3.53,0,0,1-1,.26l3,4.86h-1.27l-2.82-4.77H158.8Zm0-5.66h1.8a3.46,3.46,0,0,0,1.93-.46,1.52,1.52,0,0,0,.68-1.36,1.72,1.72,0,0,0-.19-.85,1.47,1.47,0,0,0-.52-.56,2.53,2.53,0,0,0-.8-.32,5.7,5.7,0,0,0-1.06-.1H158.8Z" transform="translate(-72.43 -39)"/><path class="cls-4" d="M171.86,59.26h0l4.85-4.58h1.48l-5.14,4.62,5.43,5.58H177l-5.09-5.43h0v5.43h-1V54.68h1Z" transform="translate(-72.43 -39)"/><path class="cls-4" d="M186.77,63.45h0l2.55-8.77h1.24l2.55,8.77h0l2.49-8.77h1.09l-3,10.2h-1.21L190,56.12h0l-2.56,8.76h-1.21l-3-10.2h1.1Z" transform="translate(-72.43 -39)"/><path class="cls-4" d="M212.64,59.78a5.51,5.51,0,0,1-.4,2.14,5,5,0,0,1-2.8,2.81,5.77,5.77,0,0,1-4.22,0,5.28,5.28,0,0,1-1.69-1.11,5.22,5.22,0,0,1-1.11-1.7,5.51,5.51,0,0,1-.4-2.14,5.6,5.6,0,0,1,.4-2.15,5,5,0,0,1,2.8-2.81,5.77,5.77,0,0,1,4.22,0,5.12,5.12,0,0,1,2.8,2.81A5.6,5.6,0,0,1,212.64,59.78Zm-1.09,0a5,5,0,0,0-.29-1.69,4.14,4.14,0,0,0-.84-1.42,3.85,3.85,0,0,0-1.33-1,4.16,4.16,0,0,0-1.76-.36,4.24,4.24,0,0,0-1.77.36,4,4,0,0,0-1.33,1,4.29,4.29,0,0,0-.83,1.42,5.1,5.1,0,0,0,0,3.39,4,4,0,0,0,2.16,2.37,4.24,4.24,0,0,0,1.77.36,4.16,4.16,0,0,0,1.76-.36,4,4,0,0,0,1.33-1,4,4,0,0,0,.84-1.41A5.06,5.06,0,0,0,211.55,59.78Z" transform="translate(-72.43 -39)"/><path class="cls-4" d="M220.27,64.88h-1V54.68h3a6.68,6.68,0,0,1,1.39.14,3.29,3.29,0,0,1,1.11.47,2.37,2.37,0,0,1,.73.84,2.87,2.87,0,0,1,.26,1.27,2.52,2.52,0,0,1-1.57,2.36,3.45,3.45,0,0,1-1,.26l3,4.86h-1.26L222,60.11h-1.73Zm0-5.66h1.8a3.46,3.46,0,0,0,1.93-.46,1.52,1.52,0,0,0,.68-1.36,1.72,1.72,0,0,0-.19-.85A1.45,1.45,0,0,0,224,56a2.59,2.59,0,0,0-.81-.32,5.67,5.67,0,0,0-1-.1h-1.85Z" transform="translate(-72.43 -39)"/><path class="cls-4" d="M233.33,59.26h0l4.85-4.58h1.49l-5.15,4.62L240,64.88h-1.52l-5.1-5.43h0v5.43h-1V54.68h1Z" transform="translate(-72.43 -39)"/><path class="cls-4" d="M250.72,56.32a2.63,2.63,0,0,0-.85-.74,2.61,2.61,0,0,0-1.26-.28,2.91,2.91,0,0,0-.76.11,2.38,2.38,0,0,0-.71.36,1.93,1.93,0,0,0-.51.59,1.78,1.78,0,0,0-.19.85,1.52,1.52,0,0,0,.19.81,1.68,1.68,0,0,0,.49.54,3,3,0,0,0,.71.37l.82.29c.35.11.71.24,1.07.37a3.64,3.64,0,0,1,1,.53,2.43,2.43,0,0,1,.7.82,2.5,2.5,0,0,1,.28,1.26,2.78,2.78,0,0,1-1,2.23,3.11,3.11,0,0,1-1.06.53,4.16,4.16,0,0,1-1.21.17,4.86,4.86,0,0,1-.92-.09,3.76,3.76,0,0,1-.88-.28,3.29,3.29,0,0,1-.77-.48,3.64,3.64,0,0,1-.64-.66L246,63a2.67,2.67,0,0,0,.92.91,2.6,2.6,0,0,0,1.41.37,2.76,2.76,0,0,0,.79-.12,2.21,2.21,0,0,0,.73-.38,2.09,2.09,0,0,0,.53-.61,1.93,1.93,0,0,0,0-1.75,1.93,1.93,0,0,0-.55-.59,3.13,3.13,0,0,0-.8-.39c-.29-.11-.61-.21-.93-.32s-.67-.23-1-.36a3.22,3.22,0,0,1-.87-.53,2.38,2.38,0,0,1-.63-.8,2.52,2.52,0,0,1-.24-1.16,2.56,2.56,0,0,1,.3-1.27,2.61,2.61,0,0,1,.77-.88,3,3,0,0,1,1.05-.5,4.08,4.08,0,0,1,1.14-.16,3.86,3.86,0,0,1,1.77.37,3,3,0,0,1,1.11.87Z" transform="translate(-72.43 -39)"/></svg>