<svg width="448" height="100" viewBox="0 0 448 100" fill="none" xmlns="http://www.w3.org/2000/svg">
<g clip-path="url(#clip0_3_105)">
<path d="M23.9377 1.00195C19.5309 1.00195 15.9585 4.57298 15.9585 8.97805C15.9585 13.3831 19.5309 16.9542 23.9377 16.9542H92.3307C96.7377 16.9542 100.31 13.3831 100.31 8.97805C100.31 4.57298 96.7377 1.00195 92.3307 1.00195H23.9377Z" fill="url(#paint0_linear_3_105)"/>
<path d="M15.9585 49.9981C15.9585 45.5931 19.5309 42.022 23.9377 42.022H92.3307C96.7377 42.022 100.31 45.5931 100.31 49.9981C100.31 54.4033 96.7377 57.9742 92.3307 57.9742H23.9377C19.5309 57.9742 15.9585 54.4033 15.9585 49.9981Z" fill="url(#paint1_linear_3_105)"/>
<path d="M15.9585 91.0181C15.9585 86.6131 19.5309 83.042 23.9377 83.042H92.3307C96.7377 83.042 100.31 86.6131 100.31 91.0181C100.31 95.4231 96.7377 98.9942 92.3307 98.9942H23.9377C19.5309 98.9942 15.9585 95.4231 15.9585 91.0181Z" fill="url(#paint2_linear_3_105)"/>
<path d="M7.97921 21.512C3.57241 21.512 0 25.083 0 29.488C0 33.8932 3.57241 37.4641 7.97921 37.4641H57.2223C61.629 37.4641 65.2015 33.8932 65.2015 29.488C65.2015 25.083 61.629 21.512 57.2223 21.512H7.97921Z" fill="url(#paint3_linear_3_105)"/>
<path d="M51.0669 70.5081C51.0669 66.1031 54.6394 62.532 59.0461 62.532H108.289C112.696 62.532 116.268 66.1031 116.268 70.5081C116.268 74.9131 112.696 78.4842 108.289 78.4842H59.0461C54.6394 78.4842 51.0669 74.9131 51.0669 70.5081Z" fill="url(#paint4_linear_3_105)"/>
<path fill-rule="evenodd" clip-rule="evenodd" d="M179.823 57.9181C179.823 47.1709 188.578 38.4587 199.379 38.4587C203.373 38.4587 207.095 39.8522 210.201 42.0892L210.788 42.5122V40.0177H218.757V76.087H210.788V73.7392L210.212 74.1211C207.111 76.1783 203.386 77.3774 199.379 77.3774C188.578 77.3774 179.823 68.665 179.823 57.9181ZM199.379 46.5655C193.078 46.5655 187.97 51.6483 187.97 57.9181C187.97 64.1879 193.078 69.2705 199.379 69.2705C205.68 69.2705 210.788 64.1879 210.788 57.9181C210.788 51.6483 205.68 46.5655 199.379 46.5655Z" fill="#030014"/>
<path fill-rule="evenodd" clip-rule="evenodd" d="M223.952 57.9181C223.952 47.1709 232.708 38.4587 243.508 38.4587C247.503 38.4587 251.224 39.8522 254.331 42.0892L254.919 42.5122V40.0177H262.769V76.087H254.919V73.7392L254.342 74.1211C251.241 76.1783 247.516 77.3774 243.508 77.3774C232.708 77.3774 223.952 68.665 223.952 57.9181ZM243.508 46.5655C237.207 46.5655 232.099 51.6483 232.099 57.9181C232.099 64.1879 237.207 69.2705 243.508 69.2705C249.81 69.2705 254.919 64.1879 254.919 57.9181C254.919 51.6483 249.81 46.5655 243.508 46.5655Z" fill="#030014"/>
<path fill-rule="evenodd" clip-rule="evenodd" d="M439.728 41.7527V22.6216H448V76.2714H439.728V74.0836L439.438 74.2744C436.309 76.3512 432.549 77.5616 428.504 77.5616C417.599 77.5616 408.761 68.7668 408.761 57.9181C408.761 47.0692 417.599 38.2744 428.504 38.2744C432.549 38.2744 436.309 39.4848 439.438 41.5616L439.728 41.7527ZM428.504 46.7499C422.303 46.7499 417.28 51.7501 417.28 57.9181C417.28 64.0862 422.303 69.0864 428.504 69.0864C434.702 69.0864 439.725 64.0862 439.725 57.9181C439.725 51.7501 434.702 46.7499 428.504 46.7499Z" fill="#030014"/>
<path d="M404.881 27.7419C404.881 31.1882 402.074 33.9821 398.609 33.9821C395.147 33.9821 392.339 31.1882 392.339 27.7419C392.339 24.2953 395.147 21.5015 398.609 21.5015C402.074 21.5015 404.881 24.2953 404.881 27.7419Z" fill="#030014"/>
<path d="M394.231 76.2055V39.8992H402.989V76.2055H394.231Z" fill="#030014"/>
<path d="M369.163 55.2753C369.163 46.8669 376.013 40.0488 384.466 40.0488H387.629V48.3925H384.466C380.648 48.3925 377.551 51.473 377.551 55.2753V76.2251H369.163V55.2753Z" fill="#030014"/>
<path d="M310.794 51.1385C310.794 36.3791 322.819 24.4126 337.655 24.4126C346.854 24.4126 354.97 29.0176 359.805 36.0163L352.234 41.0906C349.024 36.49 343.69 33.4932 337.655 33.4932C327.864 33.4932 319.924 41.3922 319.924 51.1385C319.924 60.8848 327.864 68.7837 337.655 68.7837C345.332 68.7837 352.002 64.0398 354.381 57.8765L354.511 57.5365H341.385V48.4556H364.435V52.9961C364.435 67.2435 351.369 77.8645 337.655 77.8645C322.819 77.8645 310.794 65.8978 310.794 51.1385Z" fill="#030014"/>
<path d="M274.507 29.3797C277.59 26.6218 282.144 24.8699 287.984 24.8699C293.879 24.8699 298.444 26.7929 301.572 29.7986C304.551 32.664 306.256 36.5468 306.532 40.784H297.357C297.131 38.6421 296.235 36.7644 294.719 35.3905C293.066 33.8931 290.724 33.0407 287.838 33.0407C285.233 33.0407 283.04 33.6786 281.483 34.8049C279.913 35.9394 279 37.5649 279 39.4486C279 40.8921 279.498 42.0416 280.37 42.9579C281.224 43.8555 282.412 44.5025 283.76 45.0192C285.111 45.5373 286.674 45.9431 288.312 46.3295C288.845 46.4547 289.384 46.5777 289.928 46.7021C291.076 46.9645 292.25 47.2323 293.427 47.5373C296.9 48.4373 300.271 49.6301 302.776 51.8016C305.247 53.9445 306.926 57.0881 306.926 62.0273C306.926 66.4229 304.986 70.1723 301.556 72.8379C298.116 75.5119 293.151 77.1125 287.109 77.1125C280.081 77.1125 275.346 74.951 272.33 71.8292C269.461 68.8599 268.089 64.9608 267.834 61.0536H277.092C277.353 63.0777 278.241 64.9816 279.863 66.4158C281.638 67.9856 284.232 68.9416 287.692 68.9416C290.596 68.9416 293.001 68.3884 294.704 67.2858C296.435 66.1642 297.402 64.4899 297.402 62.389C297.402 60.9629 296.909 59.8269 296.045 58.9212C295.197 58.0345 294.021 57.3951 292.688 56.884C291.35 56.3716 289.804 55.9697 288.182 55.5871C287.657 55.4634 287.125 55.3416 286.587 55.2186L286.585 55.2181L286.583 55.2179C285.446 54.9579 284.284 54.6927 283.121 54.391C279.683 53.4999 276.349 52.3205 273.872 50.1781C271.427 48.0642 269.768 44.9658 269.768 40.0999C269.768 35.9281 271.423 32.1353 274.507 29.3797Z" fill="#030014"/>
<path d="M143.418 29.3797C146.503 26.6218 151.056 24.8699 156.894 24.8699C162.79 24.8699 167.356 26.7929 170.482 29.7986C173.461 32.664 175.166 36.5468 175.443 40.784H166.269C166.041 38.6421 165.147 36.7644 163.63 35.3905C161.976 33.8931 159.636 33.0407 156.749 33.0407C154.145 33.0407 151.953 33.6786 150.394 34.8049C148.823 35.9394 147.91 37.5649 147.91 39.4486C147.91 40.8921 148.408 42.0416 149.281 42.9579C150.136 43.8555 151.324 44.5025 152.672 45.0192C154.023 45.5373 155.585 45.9431 157.224 46.3295C157.753 46.454 158.29 46.5766 158.833 46.7005L158.839 46.7021C159.988 46.9645 161.162 47.2323 162.338 47.5373C165.812 48.4373 169.183 49.6301 171.687 51.8016C174.158 53.9445 175.838 57.0881 175.838 62.0273C175.838 66.4229 173.897 70.1723 170.467 72.8379C167.027 75.5119 162.062 77.1125 156.022 77.1125C148.992 77.1125 144.257 74.951 141.241 71.8292C138.373 68.8599 137.001 64.9608 136.746 61.0536H146.005C146.264 63.0777 147.152 64.9816 148.773 66.4158C150.548 67.9856 153.143 68.9416 156.603 68.9416C159.506 68.9416 161.913 68.3884 163.614 67.2858C165.345 66.1642 166.315 64.4899 166.315 62.389C166.315 60.9629 165.821 59.8269 164.956 58.9212C164.109 58.0345 162.932 57.3951 161.599 56.884C160.261 56.3716 158.715 55.9697 157.093 55.5871C156.569 55.4634 156.036 55.3416 155.498 55.2188L155.494 55.2179C154.357 54.9579 153.196 54.6927 152.032 54.391C148.595 53.4999 145.259 52.3205 142.783 50.1781C140.339 48.0642 138.678 44.9658 138.678 40.0999C138.678 35.9281 140.335 32.1353 143.418 29.3797Z" fill="#030014"/>
</g>
<defs>
<linearGradient id="paint0_linear_3_105" x1="129.584" y1="41.4951" x2="-31.5347" y2="41.4951" gradientUnits="userSpaceOnUse">
<stop stop-color="#0DB5FF"/>
<stop offset="1" stop-color="#8155FE"/>
</linearGradient>
<linearGradient id="paint1_linear_3_105" x1="129.584" y1="41.4952" x2="-31.5347" y2="41.4952" gradientUnits="userSpaceOnUse">
<stop stop-color="#0DB5FF"/>
<stop offset="1" stop-color="#8155FE"/>
</linearGradient>
<linearGradient id="paint2_linear_3_105" x1="129.584" y1="41.4952" x2="-31.5347" y2="41.4952" gradientUnits="userSpaceOnUse">
<stop stop-color="#0DB5FF"/>
<stop offset="1" stop-color="#8155FE"/>
</linearGradient>
<linearGradient id="paint3_linear_3_105" x1="129.584" y1="41.4952" x2="-31.5349" y2="41.4952" gradientUnits="userSpaceOnUse">
<stop stop-color="#0DB5FF"/>
<stop offset="1" stop-color="#8155FE"/>
</linearGradient>
<linearGradient id="paint4_linear_3_105" x1="129.584" y1="41.4952" x2="-31.5347" y2="41.4952" gradientUnits="userSpaceOnUse">
<stop stop-color="#0DB5FF"/>
<stop offset="1" stop-color="#8155FE"/>
</linearGradient>
<clipPath id="clip0_3_105">
<rect width="448" height="100" fill="white"/>
</clipPath>
</defs>
</svg>
