<svg width="206" height="46" viewBox="0 0 206 46" fill="none" xmlns="http://www.w3.org/2000/svg">
<path d="M11.007 0.460938C8.98068 0.460938 7.33801 2.10361 7.33801 4.12994C7.33801 6.15628 8.98068 7.79895 11.007 7.79895H42.4556C44.482 7.79895 46.1246 6.15628 46.1246 4.12994C46.1246 2.10361 44.482 0.460938 42.4556 0.460938H11.007Z" fill="url(#paint0_linear_558_9828)"/>
<path d="M7.33801 22.9991C7.33801 20.9728 8.98068 19.3301 11.007 19.3301H42.4556C44.482 19.3301 46.1246 20.9728 46.1246 22.9991C46.1246 25.0255 44.482 26.6681 42.4556 26.6681H11.007C8.98068 26.6681 7.33801 25.0255 7.33801 22.9991Z" fill="url(#paint1_linear_558_9828)"/>
<path d="M7.33801 41.8683C7.33801 39.842 8.98068 38.1993 11.007 38.1993H42.4556C44.482 38.1993 46.1246 39.842 46.1246 41.8683C46.1246 43.8946 44.482 45.5373 42.4556 45.5373H11.007C8.98068 45.5373 7.33801 43.8946 7.33801 41.8683Z" fill="url(#paint2_linear_558_9828)"/>
<path d="M3.66901 9.89553C1.64267 9.89553 0 11.5382 0 13.5645C0 15.5909 1.64267 17.2335 3.66901 17.2335H26.312C28.3383 17.2335 29.981 15.5909 29.981 13.5645C29.981 11.5382 28.3383 9.89553 26.312 9.89553H3.66901Z" fill="url(#paint3_linear_558_9828)"/>
<path d="M23.4816 32.4337C23.4816 30.4074 25.1243 28.7647 27.1506 28.7647H49.7937C51.82 28.7647 53.4627 30.4074 53.4627 32.4337C53.4627 34.46 51.82 36.1027 49.7937 36.1027H27.1506C25.1243 36.1027 23.4816 34.46 23.4816 32.4337Z" fill="url(#paint4_linear_558_9828)"/>
<path fill-rule="evenodd" clip-rule="evenodd" d="M82.6863 26.6423C82.6863 21.6986 86.7123 17.691 91.6786 17.691C93.5153 17.691 95.2265 18.332 96.6547 19.361L96.9248 19.5556V18.4081H100.589V35H96.9248V33.92L96.6601 34.0957C95.2341 35.042 93.5213 35.5936 91.6786 35.5936C86.7123 35.5936 82.6863 31.5859 82.6863 26.6423ZM91.6786 21.4201C88.7813 21.4201 86.4325 23.7582 86.4325 26.6423C86.4325 29.5264 88.7813 31.8644 91.6786 31.8644C94.576 31.8644 96.9247 29.5264 96.9247 26.6423C96.9247 23.7582 94.576 21.4201 91.6786 21.4201Z" fill="#030014"/>
<path fill-rule="evenodd" clip-rule="evenodd" d="M102.978 26.6423C102.978 21.6986 107.004 17.691 111.97 17.691C113.807 17.691 115.518 18.332 116.947 19.361L117.217 19.5556V18.4081H120.827V35H117.217V33.92L116.952 34.0957C115.526 35.042 113.813 35.5936 111.97 35.5936C107.004 35.5936 102.978 31.5859 102.978 26.6423ZM111.97 21.4201C109.073 21.4201 106.724 23.7582 106.724 26.6423C106.724 29.5264 109.073 31.8644 111.97 31.8644C114.868 31.8644 117.217 29.5264 117.217 26.6423C117.217 23.7582 114.868 21.4201 111.97 21.4201Z" fill="#030014"/>
<path fill-rule="evenodd" clip-rule="evenodd" d="M202.196 19.2062V10.4059H206V35.0848H202.196V34.0784L202.063 34.1662C200.624 35.1215 198.895 35.6783 197.035 35.6783C192.021 35.6783 187.957 31.6327 187.957 26.6423C187.957 21.6518 192.021 17.6062 197.035 17.6062C198.895 17.6062 200.624 18.163 202.063 19.1183L202.196 19.2062ZM197.035 21.5049C194.184 21.5049 191.874 23.805 191.874 26.6423C191.874 29.4796 194.184 31.7797 197.035 31.7797C199.885 31.7797 202.195 29.4796 202.195 26.6423C202.195 23.805 199.885 21.5049 197.035 21.5049Z" fill="#030014"/>
<path d="M186.173 12.7612C186.173 14.3465 184.882 15.6317 183.289 15.6317C181.697 15.6317 180.406 14.3465 180.406 12.7612C180.406 11.1758 181.697 9.89062 183.289 9.89062C184.882 9.89062 186.173 11.1758 186.173 12.7612Z" fill="#030014"/>
<path d="M181.276 35.0545V18.3536H185.303V35.0545H181.276Z" fill="#030014"/>
<path d="M169.749 25.4267C169.749 21.5588 172.899 18.4225 176.786 18.4225H178.24V22.2606H176.786C175.03 22.2606 173.606 23.6776 173.606 25.4267V35.0636H169.749V25.4267Z" fill="#030014"/>
<path d="M142.91 23.5237C142.91 16.7344 148.439 11.2298 155.261 11.2298C159.491 11.2298 163.223 13.3481 165.446 16.5675L161.965 18.9017C160.489 16.7854 158.036 15.4069 155.261 15.4069C150.759 15.4069 147.108 19.0404 147.108 23.5237C147.108 28.007 150.759 31.6405 155.261 31.6405C158.791 31.6405 161.858 29.4583 162.952 26.6232L163.012 26.4668H156.976V22.2896H167.575V24.3782C167.575 30.932 161.567 35.8177 155.261 35.8177C148.439 35.8177 142.91 30.313 142.91 23.5237Z" fill="#030014"/>
<path d="M126.224 13.5146C127.642 12.246 129.736 11.4401 132.421 11.4401C135.132 11.4401 137.231 12.3247 138.669 13.7073C140.039 15.0254 140.823 16.8115 140.95 18.7606H136.731C136.627 17.7753 136.215 16.9116 135.518 16.2796C134.758 15.5908 133.681 15.1987 132.354 15.1987C131.156 15.1987 130.148 15.4921 129.432 16.0102C128.71 16.5321 128.29 17.2798 128.29 18.1463C128.29 18.8103 128.519 19.3391 128.92 19.7606C129.313 20.1735 129.859 20.4711 130.479 20.7088C131.1 20.9471 131.819 21.1338 132.572 21.3115C132.817 21.3691 133.065 21.4257 133.315 21.4829C133.843 21.6036 134.383 21.7268 134.924 21.8671C136.521 22.2811 138.071 22.8298 139.223 23.8287C140.359 24.8144 141.131 26.2605 141.131 28.5325C141.131 30.5545 140.239 32.2792 138.662 33.5054C137.08 34.7354 134.797 35.4717 132.019 35.4717C128.787 35.4717 126.61 34.4774 125.223 33.0414C123.904 31.6755 123.273 29.8819 123.156 28.0846H127.413C127.533 29.0157 127.941 29.8915 128.687 30.5512C129.503 31.2733 130.696 31.7131 132.287 31.7131C133.622 31.7131 134.728 31.4586 135.511 30.9514C136.307 30.4355 136.752 29.6653 136.752 28.6989C136.752 28.0429 136.525 27.5203 136.128 27.1037C135.738 26.6958 135.197 26.4017 134.584 26.1666C133.969 25.9309 133.258 25.746 132.512 25.57C132.271 25.5131 132.026 25.4571 131.779 25.4005L131.778 25.4003L131.777 25.4002C131.254 25.2806 130.72 25.1586 130.185 25.0198C128.604 24.6099 127.071 24.0674 125.932 23.0819C124.808 22.1095 124.045 20.6842 124.045 18.4459C124.045 16.5269 124.806 14.7822 126.224 13.5146Z" fill="#030014"/>
<path d="M65.9466 13.5146C67.3652 12.246 69.4587 11.4401 72.1435 11.4401C74.8544 11.4401 76.9542 12.3247 78.3913 13.7073C79.7614 15.0254 80.5453 16.8115 80.6727 18.7606H76.454C76.3494 17.7753 75.9381 16.9116 75.2405 16.2796C74.4803 15.5908 73.4041 15.1987 72.0766 15.1987C70.8791 15.1987 69.8712 15.4921 69.1544 16.0102C68.4323 16.5321 68.0124 17.2798 68.0124 18.1463C68.0124 18.8103 68.2413 19.3391 68.6426 19.7606C69.0357 20.1735 69.5822 20.4711 70.2018 20.7088C70.823 20.9471 71.5414 21.1338 72.2952 21.3115C72.5383 21.3688 72.7853 21.4252 73.0347 21.4822L73.0377 21.4829C73.5662 21.6036 74.1057 21.7268 74.6467 21.8671C76.2439 22.2811 77.7942 22.8298 78.9455 23.8287C80.0818 24.8144 80.854 26.2605 80.854 28.5325C80.854 30.5545 79.9615 32.2792 78.3847 33.5054C76.8029 34.7354 74.5198 35.4717 71.7422 35.4717C68.5099 35.4717 66.3325 34.4774 64.9458 33.0414C63.6269 31.6755 62.9962 29.8819 62.8789 28.0846H67.1362C67.2554 29.0157 67.6637 29.8915 68.4093 30.5512C69.2253 31.2733 70.4185 31.7131 72.0097 31.7131C73.3443 31.7131 74.451 31.4586 75.2334 30.9514C76.0295 30.4355 76.4752 29.6653 76.4752 28.6989C76.4752 28.0429 76.2482 27.5203 75.8505 27.1037C75.4611 26.6958 74.9199 26.4017 74.3067 26.1666C73.6917 25.9309 72.9807 25.746 72.2348 25.57C71.9937 25.5131 71.7487 25.4571 71.5014 25.4006L71.5009 25.4005L71.4996 25.4002C70.9767 25.2806 70.4431 25.1586 69.9078 25.0198C68.3272 24.6099 66.7935 24.0674 65.6546 23.0819C64.5309 22.1095 63.7674 20.6842 63.7674 18.4459C63.7674 16.5269 64.529 14.7822 65.9466 13.5146Z" fill="#030014"/>
<defs>
<linearGradient id="paint0_linear_558_9828" x1="59.5854" y1="19.0878" x2="-14.5004" y2="19.0878" gradientUnits="userSpaceOnUse">
<stop stop-color="#0DB5FF"/>
<stop offset="1" stop-color="#8155FE"/>
</linearGradient>
<linearGradient id="paint1_linear_558_9828" x1="59.5854" y1="19.0878" x2="-14.5004" y2="19.0878" gradientUnits="userSpaceOnUse">
<stop stop-color="#0DB5FF"/>
<stop offset="1" stop-color="#8155FE"/>
</linearGradient>
<linearGradient id="paint2_linear_558_9828" x1="59.5854" y1="19.0878" x2="-14.5004" y2="19.0878" gradientUnits="userSpaceOnUse">
<stop stop-color="#0DB5FF"/>
<stop offset="1" stop-color="#8155FE"/>
</linearGradient>
<linearGradient id="paint3_linear_558_9828" x1="59.5854" y1="19.0878" x2="-14.5004" y2="19.0878" gradientUnits="userSpaceOnUse">
<stop stop-color="#0DB5FF"/>
<stop offset="1" stop-color="#8155FE"/>
</linearGradient>
<linearGradient id="paint4_linear_558_9828" x1="59.5854" y1="19.0878" x2="-14.5004" y2="19.0878" gradientUnits="userSpaceOnUse">
<stop stop-color="#0DB5FF"/>
<stop offset="1" stop-color="#8155FE"/>
</linearGradient>
</defs>
</svg>
