<svg width="200" height="200" viewBox="0 0 200 200" fill="none" xmlns="http://www.w3.org/2000/svg">
<path d="M196.435 57.885L142.11 3.56417C140.984 2.43448 139.647 1.5381 138.174 0.926475C136.701 0.314846 135.122 0 133.527 0C131.933 0 130.354 0.314846 128.881 0.926475C127.408 1.5381 126.071 2.43448 124.945 3.56417L79.3878 49.1173L3.5645 124.943C2.43471 126.068 1.53825 127.406 0.926562 128.878C0.314875 130.351 0 131.93 0 133.524C0 135.119 0.314875 136.698 0.926562 138.17C1.53825 139.643 2.43471 140.98 3.5645 142.106L57.8904 196.436C59.0159 197.566 60.3534 198.462 61.8261 199.074C63.2989 199.685 64.8779 200 66.4726 200C68.0673 200 69.6464 199.685 71.1191 199.074C72.5919 198.462 73.9293 197.566 75.0548 196.436L143.023 128.465L196.435 75.0571C197.565 73.9318 198.462 72.5944 199.073 71.1218C199.685 69.6492 200 68.0703 200 66.4757C200 64.8812 199.685 63.3023 199.073 61.8297C198.462 60.3571 197.565 59.0197 196.435 57.8943" fill="white"/>
<path d="M144.821 77.4515C142.238 80.0092 138.848 81.5926 135.228 81.932C131.608 82.2714 127.983 81.3459 124.969 79.3131C121.955 77.2802 119.739 74.2656 118.698 70.7827C117.657 67.2997 117.856 63.5637 119.26 60.2106C120.664 56.8576 123.188 54.0949 126.4 52.3929C129.612 50.6909 133.315 50.1548 136.879 50.8759C140.442 51.597 143.645 53.5308 145.943 56.3479C148.24 59.165 149.49 62.6913 149.48 66.3264C149.474 68.3962 149.06 70.4444 148.26 72.3536C147.461 74.2627 146.292 75.9952 144.821 77.4515ZM192.596 61.7515L138.27 7.46796C137.012 6.21052 135.306 5.50415 133.527 5.50415C131.748 5.50415 130.042 6.21052 128.784 7.46796L70.0786 66.168L133.881 129.965L192.587 71.2647C193.844 70.0067 194.551 68.3008 194.551 66.5221C194.551 64.7434 193.844 63.0375 192.587 61.7795" fill="#E31837"/>
<path d="M78.3719 122.809C80.944 120.242 84.3263 118.647 87.943 118.293C91.5596 117.94 95.1868 118.852 98.2069 120.872C101.227 122.893 103.453 125.898 104.506 129.375C105.56 132.853 105.375 136.588 103.983 139.944C102.591 143.301 100.079 146.071 96.8742 147.784C93.6692 149.496 89.9696 150.044 86.4056 149.336C82.8416 148.627 79.6334 146.705 77.3276 143.897C75.0217 141.088 73.7607 137.568 73.7593 133.934C73.7565 131.867 74.1626 129.82 74.9542 127.911C75.7459 126.002 76.9074 124.268 78.3719 122.809ZM54.4517 144.435C51.8776 147.021 48.4863 148.635 44.8556 149.002C41.2249 149.369 37.5794 148.466 34.5398 146.446C31.5003 144.427 29.2548 141.417 28.1859 137.928C27.117 134.439 27.2906 130.688 28.6774 127.313C30.0641 123.938 32.5781 121.148 35.7912 119.418C39.0043 117.688 42.7177 117.126 46.299 117.826C49.8803 118.527 53.1079 120.447 55.4321 123.26C57.7563 126.073 59.0333 129.605 59.0457 133.254C59.0532 135.328 58.6513 137.384 57.863 139.302C57.0747 141.221 55.9154 142.965 54.4517 144.435ZM7.40344 128.782C6.14589 130.04 5.43945 131.746 5.43945 133.524C5.43945 135.303 6.14589 137.009 7.40344 138.267L61.7294 192.597C62.9875 193.854 64.6935 194.561 66.4724 194.561C68.2513 194.561 69.9573 193.854 71.2154 192.597L129.921 133.897L66.109 70.0815L7.40344 128.782Z" fill="#0069A7"/>
</svg>
