<svg width="646" height="100" viewBox="0 0 646 100" fill="none" xmlns="http://www.w3.org/2000/svg">
<mask id="mask0_3_133" style="mask-type:luminance" maskUnits="userSpaceOnUse" x="0" y="15" width="42" height="43">
<path d="M20.7563 57.1861C32.2197 57.1861 41.5126 47.916 41.5126 36.4807C41.5126 25.0455 32.2197 15.7754 20.7563 15.7754C9.29293 15.7754 0 25.0455 0 36.4807C0 47.916 9.29293 57.1861 20.7563 57.1861Z" fill="white"/>
</mask>
<g mask="url(#mask0_3_133)">
<path d="M20.7746 -19.6581L-35.4868 36.4653L20.7746 92.5887L77.0361 36.4653L20.7746 -19.6581Z" fill="#4B4B4B"/>
</g>
<mask id="mask1_3_133" style="mask-type:luminance" maskUnits="userSpaceOnUse" x="3" y="18" width="36" height="37">
<path d="M20.7564 54.0008C30.4562 54.0008 38.3194 46.1568 38.3194 36.4808C38.3194 26.8049 30.4562 18.9609 20.7564 18.9609C11.0566 18.9609 3.19336 26.8049 3.19336 36.4808C3.19336 46.1568 11.0566 54.0008 20.7564 54.0008Z" fill="white"/>
</mask>
<g mask="url(#mask1_3_133)">
<path d="M20.7748 -15.1532L-30.9707 36.4653L20.7748 88.0839L72.5203 36.4653L20.7748 -15.1532Z" fill="white"/>
</g>
<mask id="mask2_3_133" style="mask-type:luminance" maskUnits="userSpaceOnUse" x="42" y="58" width="43" height="42">
<path d="M63.6752 100C75.1386 100 84.4315 90.7299 84.4315 79.2947C84.4315 67.8595 75.1386 58.5894 63.6752 58.5894C52.2118 58.5894 42.9189 67.8595 42.9189 79.2947C42.9189 90.7299 52.2118 100 63.6752 100Z" fill="white"/>
</mask>
<g mask="url(#mask2_3_133)">
<path d="M63.7073 23.1827L7.4458 79.3062L63.7073 135.43L119.969 79.3062L63.7073 23.1827Z" fill="#4B4B4B"/>
</g>
<mask id="mask3_3_133" style="mask-type:luminance" maskUnits="userSpaceOnUse" x="46" y="61" width="36" height="36">
<path d="M63.6753 96.8145C73.3751 96.8145 81.2383 88.9706 81.2383 79.2946C81.2383 69.6186 73.3751 61.7747 63.6753 61.7747C53.9755 61.7747 46.1123 69.6186 46.1123 79.2946C46.1123 88.9706 53.9755 96.8145 63.6753 96.8145Z" fill="white"/>
</mask>
<g mask="url(#mask3_3_133)">
<path d="M63.7069 27.6871L11.9614 79.3057L63.7069 130.924L115.452 79.3057L63.7069 27.6871Z" fill="#F58020"/>
</g>
<mask id="mask4_3_133" style="mask-type:luminance" maskUnits="userSpaceOnUse" x="58" y="0" width="43" height="42">
<path d="M79.5278 41.4107C90.9911 41.4107 100.284 32.1406 100.284 20.7053C100.284 9.2701 90.9911 0 79.5278 0C68.0644 0 58.7715 9.2701 58.7715 20.7053C58.7715 32.1406 68.0644 41.4107 79.5278 41.4107Z" fill="white"/>
</mask>
<g mask="url(#mask4_3_133)">
<path d="M79.5203 -35.4196L23.2588 20.7039L79.5203 76.8273L135.782 20.7039L79.5203 -35.4196Z" fill="#4B4B4B"/>
</g>
<mask id="mask5_3_133" style="mask-type:luminance" maskUnits="userSpaceOnUse" x="61" y="3" width="37" height="36">
<path d="M79.5279 38.2254C89.2276 38.2254 97.0908 30.3814 97.0908 20.7055C97.0908 11.0295 89.2276 3.18555 79.5279 3.18555C69.8281 3.18555 61.9648 11.0295 61.9648 20.7055C61.9648 30.3814 69.8281 38.2254 79.5279 38.2254Z" fill="white"/>
</mask>
<g mask="url(#mask5_3_133)">
<path d="M79.5204 -30.9149L27.7749 20.7036L79.5204 72.3221L131.266 20.7036L79.5204 -30.9149Z" fill="#336CDE"/>
</g>
<mask id="mask6_3_133" style="mask-type:luminance" maskUnits="userSpaceOnUse" x="33" y="48" width="19" height="19">
<path d="M35.4538 48.8435L33.1958 51.0959L49.0017 66.8631L51.2597 64.6106L35.4538 48.8435Z" fill="white"/>
</mask>
<g mask="url(#mask6_3_133)">
<path d="M35.4537 22.0668L6.31494 51.134L49.0016 93.716L78.1404 64.6487L35.4537 22.0668Z" fill="#4B4B4B"/>
</g>
<mask id="mask7_3_133" style="mask-type:luminance" maskUnits="userSpaceOnUse" x="38" y="24" width="24" height="10">
<path d="M60.4496 24.2196L38.8584 29.9907L39.6849 33.0676L61.2761 27.2965L60.4496 24.2196Z" fill="white"/>
</mask>
<g mask="url(#mask7_3_133)">
<path d="M73.8902 0.997185L15.5791 16.5833L26.2446 56.2899L84.5557 40.7038L73.8902 0.997185Z" fill="#4B4B4B"/>
</g>
<mask id="mask8_3_133" style="mask-type:luminance" maskUnits="userSpaceOnUse" x="67" y="38" width="10" height="24">
<path d="M72.924 38.8575L67.1387 60.3958L70.2231 61.2202L76.0085 39.6819L72.924 38.8575Z" fill="white"/>
</mask>
<g mask="url(#mask8_3_133)">
<path d="M59.4838 15.6731L43.8594 73.8411L83.6637 84.4804L99.2881 26.3124L59.4838 15.6731Z" fill="#4B4B4B"/>
</g>
<path d="M155.33 62.7224H133.167C130.485 62.7485 127.824 62.2459 125.336 61.2435C123.013 60.2953 120.906 58.8894 119.14 57.11C117.329 55.3115 115.894 53.1716 114.92 50.815C112.943 45.7022 112.943 40.0384 114.92 34.9257C115.85 32.5924 117.241 30.4698 119.011 28.6846C120.781 26.8994 122.894 25.4882 125.222 24.5351C127.71 23.5327 130.371 23.0301 133.053 23.0561C135.661 23.0451 138.244 23.5477 140.656 24.5351C142.985 25.4758 145.105 26.8678 146.891 28.6307C148.661 30.4394 150.056 32.5785 150.997 34.9257C152.005 37.4457 152.508 40.1383 152.479 42.8514C152.514 46.1145 151.73 49.3344 150.198 52.2181C148.613 55.0826 146.256 57.4472 143.393 59.044H155.102L155.33 62.7224ZM117.733 42.8893C117.715 44.9966 118.075 47.0901 118.798 49.0706C119.454 50.9875 120.488 52.754 121.839 54.2659C123.145 55.8731 124.794 57.1687 126.667 58.0581C128.708 58.9345 130.907 59.3865 133.129 59.3865C135.352 59.3865 137.551 58.9345 139.592 58.0581C141.47 57.1596 143.13 55.8659 144.458 54.2659C145.808 52.7468 146.854 50.9831 147.537 49.0706C148.29 47.0973 148.664 45.0004 148.64 42.8893C148.663 40.7659 148.289 38.6567 147.537 36.6701C146.837 34.7656 145.793 33.005 144.458 31.4748C143.118 29.8865 141.461 28.5949 139.592 27.6826C137.551 26.8062 135.352 26.3542 133.129 26.3542C130.907 26.3542 128.708 26.8062 126.667 27.6826C124.802 28.5846 123.155 29.8783 121.839 31.4748C120.48 32.98 119.422 34.7305 118.722 36.6322C118.021 38.6425 117.686 40.7615 117.733 42.8893Z" fill="#4B4B4B"/>
<path d="M192.927 63.6703C190.459 63.7635 188.006 63.2559 185.78 62.1914C184.033 61.2733 182.513 59.9777 181.332 58.3992C180.252 56.8946 179.478 55.1942 179.051 53.3935C178.655 51.7155 178.451 49.998 178.443 48.2741V24.042H182.244V48.0086C182.242 49.5434 182.433 51.0723 182.815 52.5593C183.163 53.9184 183.755 55.2032 184.563 56.3514C185.433 57.5052 186.55 58.4509 187.833 59.1197C189.399 59.8208 191.096 60.1832 192.813 60.1832C194.529 60.1832 196.226 59.8208 197.793 59.1197C199.083 58.462 200.202 57.5144 201.062 56.3514C201.868 55.1973 202.472 53.915 202.849 52.5593C203.199 51.0675 203.377 49.5407 203.381 48.0086V24.042H207.182V48.2741C207.162 49.9995 206.945 51.717 206.536 53.3935C206.109 55.1942 205.335 56.8946 204.255 58.3992C203.083 59.9858 201.561 61.2831 199.807 62.1914C197.661 63.2144 195.305 63.721 192.927 63.6703Z" fill="#4B4B4B"/>
<path d="M233.451 62.7223H228.965L245.73 24.042H249.531L266.182 62.7223H261.81L257.552 52.5593H237.518L233.451 62.7223ZM239.153 48.9567H256.222L247.668 28.403L239.153 48.9567Z" fill="#4B4B4B"/>
<path d="M292.831 62.7224H289.029V24.0421H300.434C302.209 24.0363 303.98 24.2142 305.718 24.573C307.223 24.9028 308.653 25.5071 309.938 26.3554C311.103 27.1824 312.054 28.2743 312.713 29.5408C313.392 31.0534 313.717 32.7004 313.663 34.3569C313.687 35.6609 313.428 36.9547 312.903 38.1491C312.435 39.2906 311.736 40.3234 310.85 41.1828C309.954 42.0612 308.895 42.7568 307.733 43.2306C306.521 43.7435 305.24 44.0757 303.931 44.2166L315.336 62.6466H310.508L299.788 44.5579H292.831V62.7224ZM292.831 41.2587H299.674C302.237 41.4041 304.788 40.7977 307.01 39.5143C307.857 38.9567 308.542 38.1865 308.996 37.2812C309.45 36.3758 309.657 35.3673 309.596 34.3569C309.636 33.2384 309.387 32.1284 308.873 31.1335C308.413 30.2642 307.731 29.5316 306.896 29.0099C305.96 28.4349 304.931 28.0244 303.855 27.7964C302.527 27.5448 301.178 27.4179 299.826 27.4172H292.831V41.2587Z" fill="#4B4B4B"/>
<path d="M342.479 41.4102L360.916 24.042H366.542L347.002 41.5619L367.645 62.7223H362.018L342.669 42.1307V62.7223H338.867V24.042H342.669L342.479 41.4102Z" fill="#4B4B4B"/>
<path d="M399.159 57.2995L408.853 24.042H413.567L423.261 57.2995L432.726 24.042H436.87L425.466 62.7223H420.866L411.438 29.5027L401.706 62.7223H397.106L385.702 24.042H389.883L399.159 57.2995Z" fill="#4B4B4B"/>
<path d="M497.504 43.3824C497.543 46.1614 497.026 48.9204 495.983 51.4976C495.032 53.9043 493.597 56.0912 491.766 57.9237C489.935 59.7563 487.748 61.1959 485.339 62.1537C480.184 64.1744 474.452 64.1744 469.297 62.1537C466.903 61.1766 464.722 59.7472 462.872 57.9444C461.056 56.0917 459.623 53.9013 458.653 51.4976C457.61 48.9204 457.093 46.1614 457.132 43.3824C457.097 40.5914 457.613 37.8208 458.653 35.2292C459.604 32.8226 461.039 30.6357 462.87 28.8031C464.701 26.9705 466.888 25.531 469.297 24.5731C474.452 22.5525 480.184 22.5525 485.339 24.5731C487.735 25.5537 489.91 27.0013 491.738 28.831C493.566 30.6608 495.009 32.836 495.983 35.2292C497.023 37.8208 497.539 40.5914 497.504 43.3824ZM493.36 43.3824C493.366 41.1987 492.993 39.0306 492.258 36.9736C491.566 34.9831 490.48 33.1517 489.065 31.5887C487.677 29.972 485.951 28.6778 484.009 27.7965C481.905 26.8607 479.621 26.3948 477.318 26.4313C475.003 26.399 472.708 26.8646 470.589 27.7965C468.656 28.693 466.933 29.985 465.533 31.5887C464.143 33.1638 463.072 34.9924 462.378 36.9736C460.909 41.1334 460.909 45.6693 462.378 49.8291C463.051 51.8112 464.128 53.6328 465.541 55.1796C466.954 56.7263 468.673 57.9646 470.589 58.8166C472.708 59.7484 475.003 60.2141 477.318 60.1818C479.621 60.2182 481.905 59.7523 484.009 58.8166C485.942 57.92 487.664 56.628 489.065 55.0244C490.488 53.4814 491.575 51.6607 492.258 49.6774C492.976 47.6553 493.348 45.5274 493.36 43.3824Z" fill="#4B4B4B"/>
<path d="M526.51 62.7225H522.708V24.0422H534.113C535.888 24.0345 537.659 24.2124 539.397 24.5731C540.902 24.9029 542.332 25.5072 543.617 26.3555C544.782 27.1825 545.733 28.2744 546.392 29.5409C547.085 31.0501 547.423 32.6974 547.38 34.357C547.4 36.2738 546.841 38.1522 545.777 39.7482C544.713 41.3442 543.192 42.584 541.412 43.3065C540.202 43.8237 538.92 44.1561 537.61 44.2925L549.015 62.7225H544.225L533.087 44.6338H526.51V62.7225ZM526.51 41.2588H533.353C535.917 41.4043 538.467 40.7978 540.69 39.5144C541.537 38.9568 542.221 38.1866 542.675 37.2813C543.129 36.3759 543.336 35.3674 543.275 34.357C543.315 33.2385 543.066 32.1285 542.552 31.1336C542.122 30.29 541.48 29.5716 540.69 29.0479C539.739 28.4729 538.698 28.0626 537.61 27.8344C536.357 27.596 535.085 27.4691 533.809 27.4552H526.776L526.51 41.2588Z" fill="#4B4B4B"/>
<path d="M576.158 41.4102L594.596 24.042H600.26L580.682 41.5619L601.514 62.7223H595.736L576.348 42.1307V62.7223H572.547V24.042H576.348L576.158 41.4102Z" fill="#4B4B4B"/>
<path d="M642.266 30.2614C641.405 29.1041 640.302 28.1467 639.034 27.4552C637.552 26.7068 635.905 26.3417 634.245 26.3934C633.267 26.4045 632.296 26.5447 631.355 26.8105C630.385 27.1112 629.473 27.5727 628.656 28.1757C627.864 28.7821 627.204 29.5434 626.718 30.4131C626.213 31.4113 625.965 32.5189 625.995 33.6364C625.945 34.7074 626.195 35.7712 626.718 36.7081C627.181 37.5185 627.817 38.2176 628.58 38.7559C629.413 39.3418 630.321 39.8137 631.279 40.159L634.397 41.2587C635.727 41.6759 637.096 42.1689 638.464 42.6618C639.829 43.13 641.111 43.8081 642.266 44.6717C643.375 45.4964 644.284 46.5591 644.927 47.7813C645.695 49.2536 646.062 50.9013 645.991 52.5595C646.045 54.1648 645.731 55.7612 645.072 57.2268C644.413 58.6924 643.427 59.9885 642.19 61.016C640.988 61.9375 639.62 62.6198 638.16 63.0259C636.667 63.4655 635.117 63.6827 633.56 63.6706C632.386 63.6679 631.215 63.5536 630.063 63.3293C628.908 63.1138 627.785 62.7572 626.718 62.2675C625.662 61.7985 624.677 61.1859 623.79 60.4472C622.877 59.7188 622.059 58.8779 621.357 57.9444L624.323 55.5932C625.187 57.0122 626.388 58.1973 627.82 59.0441C629.436 60.0121 631.296 60.4989 633.18 60.4472C634.198 60.4416 635.21 60.2884 636.183 59.9922C637.191 59.6894 638.132 59.2005 638.958 58.5511C639.775 57.9181 640.459 57.1324 640.973 56.2379C641.497 55.2099 641.771 54.073 641.771 52.9197C641.771 51.7664 641.497 50.6295 640.973 49.6015C640.442 48.7172 639.73 47.9547 638.882 47.3642C637.944 46.7292 636.92 46.2312 635.841 45.8852C634.739 45.4681 633.522 45.0888 632.306 44.6717C631.089 44.2546 629.759 43.7995 628.504 43.3065C627.302 42.8159 626.185 42.1374 625.197 41.2967C624.189 40.4696 623.372 39.4347 622.802 38.2629C622.152 36.8897 621.839 35.3818 621.89 33.864C621.846 32.1873 622.239 30.528 623.03 29.0479C623.74 27.729 624.741 26.588 625.957 25.7108C627.151 24.8251 628.507 24.1809 629.949 23.8147C631.357 23.4091 632.816 23.2048 634.283 23.2079C636.605 23.1376 638.911 23.6185 641.011 24.611C642.661 25.3607 644.107 26.4916 645.231 27.9102L642.266 30.2614Z" fill="#4B4B4B"/>
</svg>
