<svg width="107" height="32" viewBox="0 0 107 32" fill="none" xmlns="http://www.w3.org/2000/svg">
<g clip-path="url(#clip0_2595_1694)">
<path d="M74.016 5.02051C70.1062 5.02051 66.9375 8.18922 66.9375 12.099V18.7204C66.9375 22.6301 70.1062 25.7989 74.016 25.7989C77.9258 25.7989 81.0945 22.6301 81.0945 18.7204V12.099C81.0945 8.18922 77.9258 5.02051 74.016 5.02051ZM75.9269 18.9816C75.9269 20.0378 75.0722 20.8925 74.016 20.8925C72.9598 20.8925 72.1051 20.0378 72.1051 18.9816C72.1051 18.692 72.1051 12.2921 72.1051 11.8321C72.1051 10.7759 72.9598 9.92122 74.016 9.92122C75.0722 9.92122 75.9269 10.7759 75.9269 11.8321C75.9269 12.1217 75.9269 18.5216 75.9269 18.9816Z" fill="#010A03"/>
<path d="M14.1683 10.2333V5.31553H5.16761V0.5H0V18.7173C0 22.627 3.16871 25.7957 7.07849 25.7957C10.9883 25.7957 14.157 22.627 14.157 18.7173V13.95H8.98938V18.9785C8.98938 20.0347 8.13473 20.8894 7.07849 20.8894C6.02226 20.8894 5.16761 20.0347 5.16761 18.9785V10.2304H14.1683V10.2333Z" fill="#010A03"/>
<path d="M26.0751 5.02042C24.0251 5.02042 22.719 6.09085 21.9041 7.46794V5.31855H16.7876L16.7734 25.3899H21.941V11.8349C21.941 10.7786 22.7957 9.92397 23.8519 9.92397C24.9082 9.92397 25.7628 10.7786 25.7628 11.8349V16.8633H30.9304V12.0961C30.9304 8.18629 29.3035 5.01758 26.0751 5.01758V5.02042Z" fill="#010A03"/>
<path d="M38.074 25.7874C40.124 25.7874 41.4301 24.7169 42.245 23.3398V31.4973H47.3615L47.3757 5.41504H42.2081V18.9701C42.2081 20.0263 41.3535 20.881 40.2972 20.881C39.241 20.881 38.3864 20.0263 38.3864 18.9701V5.41788H33.2188V18.7089C33.2188 22.6186 34.8457 25.7874 38.074 25.7874Z" fill="#010A03"/>
<path d="M59.833 5.02051C57.7829 5.02051 56.4768 6.09094 55.6619 7.46803V5.31864H50.5454L50.5312 25.39H55.6989V11.8349C55.6989 10.7787 56.5535 9.92406 57.6097 9.92406C58.666 9.92406 59.5206 10.7787 59.5206 11.8349V25.39H64.6882V12.099C64.6882 8.18922 63.0613 5.02051 59.833 5.02051Z" fill="#010A03"/>
<path d="M101.309 5.41797V18.973C101.309 20.0293 100.454 20.8839 99.3981 20.8839C98.3419 20.8839 97.4872 20.0293 97.4872 18.973V18.7402C97.4872 18.7402 97.4929 18.7203 97.4929 18.709V5.41797H92.3196V18.709C92.3196 18.709 92.3225 18.7288 92.3253 18.7402V18.973C92.3253 20.0293 91.4707 20.8839 90.4144 20.8839C89.3582 20.8839 88.5036 20.0293 88.5036 18.973V5.41797H83.3359V18.709C83.3359 22.6187 85.562 25.7874 89.3696 25.7874C92.3622 25.7874 94.2419 23.9248 94.9063 21.9146C95.5735 23.9248 97.4503 25.7874 100.443 25.7874C104.251 25.7874 106.477 22.6187 106.477 18.709V5.41797H101.309Z" fill="#010A03"/>
</g>
<defs>
<clipPath id="clip0_2595_1694">
<rect width="106.476" height="31" fill="white" transform="translate(0 0.5)"/>
</clipPath>
</defs>
</svg>
